<?xml version="1.0" encoding="UTF-8" standalone="no"?>
<!DOCTYPE svg PUBLIC "-//W3C//DTD SVG 1.1//EN"
 "http://www.w3.org/Graphics/SVG/1.1/DTD/svg11.dtd">
<!-- Generated by graphviz version 8.1.0 (20230707.0739)
 -->
<!-- Title: Imports graph Pages: 1 -->
<svg width="864pt" height="332pt"
 viewBox="0.00 0.00 864.39 332.00" xmlns="http://www.w3.org/2000/svg" xmlns:xlink="http://www.w3.org/1999/xlink">
<g id="graph0" class="graph" transform="scale(1 1) rotate(0) translate(4 328)">
<title>Imports graph</title>
<!-- contracts/types/PoolId.sol -->
<g id="node1" class="node">
<title>contracts/types/PoolId.sol</title>
<polygon fill="lightgrey" stroke="black" points="776.85,-324 620.6,-324 620.6,-288 776.85,-288 776.85,-324"/>
<text text-anchor="middle" x="698.73" y="-300.95" font-family="Times,serif" font-size="14.00">contracts/types/PoolId.sol</text>
</g>
<!-- contracts/PoolManager.sol -->
<g id="node3" class="node">
<title>contracts/PoolManager.sol</title>
<polygon fill="none" stroke="black" points="791.1,-36 630.35,-36 630.35,0 791.1,0 791.1,-36"/>
<text text-anchor="middle" x="710.73" y="-12.95" font-family="Times,serif" font-size="14.00">contracts/PoolManager.sol</text>
</g>
<!-- contracts/types/PoolId.sol&#45;&gt;contracts/PoolManager.sol -->
<g id="edge2" class="edge">
<title>contracts/types/PoolId.sol&#45;&gt;contracts/PoolManager.sol</title>
<path fill="none" stroke="black" d="M766.95,-287.51C786.14,-279.55 805.39,-268.16 818.73,-252 860.53,-201.36 844.35,-173.24 851.73,-108 853.53,-92.1 860.84,-85.15 851.73,-72 839.75,-54.7 821.37,-43.04 801.79,-35.18"/>
<polygon fill="black" stroke="black" points="803.07,-31.55 792.48,-31.41 800.67,-38.13 803.07,-31.55"/>
</g>
<!-- contracts/interfaces/IPoolManager.sol -->
<g id="node4" class="node">
<title>contracts/interfaces/IPoolManager.sol</title>
<polygon fill="none" stroke="black" points="809.48,-252 587.98,-252 587.98,-216 809.48,-216 809.48,-252"/>
<text text-anchor="middle" x="698.73" y="-228.95" font-family="Times,serif" font-size="14.00">contracts/interfaces/IPoolManager.sol</text>
</g>
<!-- contracts/types/PoolId.sol&#45;&gt;contracts/interfaces/IPoolManager.sol -->
<g id="edge10" class="edge">
<title>contracts/types/PoolId.sol&#45;&gt;contracts/interfaces/IPoolManager.sol</title>
<path fill="none" stroke="black" d="M698.73,-287.7C698.73,-280.24 698.73,-271.32 698.73,-262.97"/>
<polygon fill="black" stroke="black" points="702.23,-263.1 698.73,-253.1 695.23,-263.1 702.23,-263.1"/>
</g>
<!-- contracts/types/PoolKey.sol -->
<g id="node2" class="node">
<title>contracts/types/PoolKey.sol</title>
<polygon fill="none" stroke="black" points="311.1,-108 144.35,-108 144.35,-72 311.1,-72 311.1,-108"/>
<text text-anchor="middle" x="227.73" y="-84.95" font-family="Times,serif" font-size="14.00">contracts/types/PoolKey.sol</text>
</g>
<!-- contracts/types/PoolKey.sol&#45;&gt;contracts/types/PoolId.sol -->
<g id="edge16" class="edge">
<title>contracts/types/PoolKey.sol&#45;&gt;contracts/types/PoolId.sol</title>
<path fill="none" stroke="black" d="M144.01,-97.26C106.98,-103.94 65.24,-117.34 35.73,-144 26.04,-152.75 -16.89,-225.43 7.73,-252 47.79,-295.26 431.64,-303.34 609.31,-304.76"/>
<polygon fill="black" stroke="black" points="609.16,-308.27 619.19,-304.84 609.22,-301.27 609.16,-308.27"/>
</g>
<!-- contracts/interfaces/IHooks.sol -->
<g id="node6" class="node">
<title>contracts/interfaces/IHooks.sol</title>
<polygon fill="none" stroke="black" points="416.73,-180 232.73,-180 232.73,-144 416.73,-144 416.73,-180"/>
<text text-anchor="middle" x="324.73" y="-156.95" font-family="Times,serif" font-size="14.00">contracts/interfaces/IHooks.sol</text>
</g>
<!-- contracts/types/PoolKey.sol&#45;&gt;contracts/interfaces/IHooks.sol -->
<g id="edge13" class="edge">
<title>contracts/types/PoolKey.sol&#45;&gt;contracts/interfaces/IHooks.sol</title>
<path fill="none" stroke="black" d="M257.69,-108.35C270.59,-117.02 285.5,-127.65 298.03,-137.08"/>
<polygon fill="black" stroke="black" points="295.6,-140.4 305.67,-143.7 299.85,-134.84 295.6,-140.4"/>
</g>
<!-- contracts/interfaces/IPoolManager.sol&#45;&gt;contracts/PoolManager.sol -->
<g id="edge15" class="edge">
<title>contracts/interfaces/IPoolManager.sol&#45;&gt;contracts/PoolManager.sol</title>
<path fill="none" stroke="black" d="M729.4,-215.59C762.49,-194.83 813.32,-156.74 834.73,-108 841.16,-93.35 843.54,-85.35 834.73,-72 825.84,-58.54 812.75,-48.48 798.37,-40.97"/>
<polygon fill="black" stroke="black" points="800.3,-37.54 789.77,-36.4 797.29,-43.86 800.3,-37.54"/>
</g>
<!-- contracts/interfaces/IPoolManager.sol&#45;&gt;contracts/interfaces/IHooks.sol -->
<g id="edge12" class="edge">
<title>contracts/interfaces/IPoolManager.sol&#45;&gt;contracts/interfaces/IHooks.sol</title>
<path fill="none" stroke="black" d="M605.32,-215.52C551.25,-205.4 483.12,-192.65 427.53,-182.24"/>
<polygon fill="black" stroke="black" points="428.42,-178.66 417.95,-180.26 427.13,-185.54 428.42,-178.66"/>
</g>
<!-- contracts/interfaces/IDynamicFeeManager.sol -->
<g id="node7" class="node">
<title>contracts/interfaces/IDynamicFeeManager.sol</title>
<polygon fill="none" stroke="black" points="700.98,-180 434.48,-180 434.48,-144 700.98,-144 700.98,-180"/>
<text text-anchor="middle" x="567.73" y="-156.95" font-family="Times,serif" font-size="14.00">contracts/interfaces/IDynamicFeeManager.sol</text>
</g>
<!-- contracts/interfaces/IPoolManager.sol&#45;&gt;contracts/interfaces/IDynamicFeeManager.sol -->
<g id="edge11" class="edge">
<title>contracts/interfaces/IPoolManager.sol&#45;&gt;contracts/interfaces/IDynamicFeeManager.sol</title>
<path fill="none" stroke="black" d="M666.01,-215.52C648.92,-206.39 627.82,-195.11 609.56,-185.35"/>
<polygon fill="black" stroke="black" points="611.5,-181.89 601.03,-180.26 608.2,-188.06 611.5,-181.89"/>
</g>
<!-- contracts/libraries/LockDataLibrary.sol -->
<g id="node8" class="node">
<title>contracts/libraries/LockDataLibrary.sol</title>
<polygon fill="none" stroke="black" points="825.23,-108 596.23,-108 596.23,-72 825.23,-72 825.23,-108"/>
<text text-anchor="middle" x="710.73" y="-84.95" font-family="Times,serif" font-size="14.00">contracts/libraries/LockDataLibrary.sol</text>
</g>
<!-- contracts/interfaces/IPoolManager.sol&#45;&gt;contracts/libraries/LockDataLibrary.sol -->
<g id="edge9" class="edge">
<title>contracts/interfaces/IPoolManager.sol&#45;&gt;contracts/libraries/LockDataLibrary.sol</title>
<path fill="none" stroke="black" d="M703.14,-215.95C705.6,-205.62 708.41,-192.15 709.73,-180 711.92,-159.81 712.12,-136.89 711.8,-119.36"/>
<polygon fill="black" stroke="black" points="715.28,-119.36 711.52,-109.45 708.28,-119.54 715.28,-119.36"/>
</g>
<!-- contracts/types/Currency.sol -->
<g id="node5" class="node">
<title>contracts/types/Currency.sol</title>
<polygon fill="none" stroke="black" points="214.6,-180 44.85,-180 44.85,-144 214.6,-144 214.6,-180"/>
<text text-anchor="middle" x="129.73" y="-156.95" font-family="Times,serif" font-size="14.00">contracts/types/Currency.sol</text>
</g>
<!-- contracts/types/Currency.sol&#45;&gt;contracts/types/PoolKey.sol -->
<g id="edge8" class="edge">
<title>contracts/types/Currency.sol&#45;&gt;contracts/types/PoolKey.sol</title>
<path fill="none" stroke="black" d="M154.2,-143.52C166.46,-134.76 181.47,-124.04 194.72,-114.58"/>
<polygon fill="black" stroke="black" points="196.46,-116.92 202.56,-108.26 192.39,-111.22 196.46,-116.92"/>
</g>
<!-- contracts/interfaces/IHooks.sol&#45;&gt;contracts/types/PoolKey.sol -->
<g id="edge4" class="edge">
<title>contracts/interfaces/IHooks.sol&#45;&gt;contracts/types/PoolKey.sol</title>
<path fill="none" stroke="black" d="M294.57,-143.52C281.67,-134.85 266.82,-124.25 254.34,-114.85"/>
<polygon fill="black" stroke="black" points="256.8,-111.56 246.73,-108.26 252.55,-117.12 256.8,-111.56"/>
</g>
<!-- contracts/interfaces/IDynamicFeeManager.sol&#45;&gt;contracts/PoolManager.sol -->
<g id="edge7" class="edge">
<title>contracts/interfaces/IDynamicFeeManager.sol&#45;&gt;contracts/PoolManager.sol</title>
<path fill="none" stroke="black" d="M566.94,-143.6C566.98,-124.04 569.96,-92.37 586.73,-72 597.82,-58.53 612.96,-48.41 628.85,-40.83"/>
<polygon fill="black" stroke="black" points="630.08,-43.67 637.82,-36.43 627.26,-37.27 630.08,-43.67"/>
</g>
<!-- contracts/Fees.sol -->
<g id="node11" class="node">
<title>contracts/Fees.sol</title>
<polygon fill="none" stroke="black" points="540.1,-108 427.35,-108 427.35,-72 540.1,-72 540.1,-108"/>
<text text-anchor="middle" x="483.73" y="-84.95" font-family="Times,serif" font-size="14.00">contracts/Fees.sol</text>
</g>
<!-- contracts/interfaces/IDynamicFeeManager.sol&#45;&gt;contracts/Fees.sol -->
<g id="edge5" class="edge">
<title>contracts/interfaces/IDynamicFeeManager.sol&#45;&gt;contracts/Fees.sol</title>
<path fill="none" stroke="black" d="M546.96,-143.7C536.67,-135.11 524.06,-124.61 512.81,-115.24"/>
<polygon fill="black" stroke="black" points="515.47,-112.06 505.54,-108.35 510.99,-117.44 515.47,-112.06"/>
</g>
<!-- contracts/libraries/LockDataLibrary.sol&#45;&gt;contracts/PoolManager.sol -->
<g id="edge1" class="edge">
<title>contracts/libraries/LockDataLibrary.sol&#45;&gt;contracts/PoolManager.sol</title>
<path fill="none" stroke="black" d="M710.73,-71.7C710.73,-64.24 710.73,-55.32 710.73,-46.97"/>
<polygon fill="black" stroke="black" points="714.23,-47.1 710.73,-37.1 707.23,-47.1 714.23,-47.1"/>
</g>
<!-- contracts/interfaces/external/IERC20Minimal.sol -->
<g id="node9" class="node">
<title>contracts/interfaces/external/IERC20Minimal.sol</title>
<polygon fill="none" stroke="black" points="300.6,-252 16.85,-252 16.85,-216 300.6,-216 300.6,-252"/>
<text text-anchor="middle" x="158.73" y="-228.95" font-family="Times,serif" font-size="14.00">contracts/interfaces/external/IERC20Minimal.sol</text>
</g>
<!-- contracts/interfaces/external/IERC20Minimal.sol&#45;&gt;contracts/types/Currency.sol -->
<g id="edge6" class="edge">
<title>contracts/interfaces/external/IERC20Minimal.sol&#45;&gt;contracts/types/Currency.sol</title>
<path fill="none" stroke="black" d="M151.56,-215.7C148.36,-207.98 144.52,-198.71 140.96,-190.11"/>
<polygon fill="black" stroke="black" points="143.87,-189 136.81,-181.1 137.41,-191.68 143.87,-189"/>
</g>
<!-- contracts/types/BalanceDelta.sol -->
<g id="node10" class="node">
<title>contracts/types/BalanceDelta.sol</title>
<polygon fill="none" stroke="black" points="511.23,-252 318.23,-252 318.23,-216 511.23,-216 511.23,-252"/>
<text text-anchor="middle" x="414.73" y="-228.95" font-family="Times,serif" font-size="14.00">contracts/types/BalanceDelta.sol</text>
</g>
<!-- contracts/types/BalanceDelta.sol&#45;&gt;contracts/interfaces/IHooks.sol -->
<g id="edge3" class="edge">
<title>contracts/types/BalanceDelta.sol&#45;&gt;contracts/interfaces/IHooks.sol</title>
<path fill="none" stroke="black" d="M392.48,-215.7C381.34,-207.03 367.67,-196.4 355.54,-186.96"/>
<polygon fill="black" stroke="black" points="358.07,-183.72 348.03,-180.35 353.78,-189.25 358.07,-183.72"/>
</g>
<!-- contracts/Fees.sol&#45;&gt;contracts/PoolManager.sol -->
<g id="edge14" class="edge">
<title>contracts/Fees.sol&#45;&gt;contracts/PoolManager.sol</title>
<path fill="none" stroke="black" d="M540.42,-71.52C571.83,-61.83 611.04,-49.74 643.93,-39.6"/>
<polygon fill="black" stroke="black" points="644.84,-42.67 653.36,-36.38 642.77,-35.98 644.84,-42.67"/>
</g>
</g>
</svg>
