<svg width="256" height="256" viewBox="0 0 256 256" fill="none" xmlns="http://www.w3.org/2000/svg">
<rect width="256" height="256" fill="black"/>
<path fill-rule="evenodd" clip-rule="evenodd" d="M64.5078 94.7872H53.6714L44.3617 83.873H34V75H47.6573L64.5078 94.7872Z" fill="white"/>
<path fill-rule="evenodd" clip-rule="evenodd" d="M142.523 85.9326L150.055 94.7872H139.228L129.909 83.873H126.073L116.763 94.7872H72.2538L64.536 85.9326H113.468L122.777 75H133.204L142.523 85.9326Z" fill="white"/>
<path fill-rule="evenodd" clip-rule="evenodd" d="M222 75V83.873H211.638L202.31 94.7872H157.8L150.083 85.9326H199.014L208.343 75H222Z" fill="white"/>
<path fill-rule="evenodd" clip-rule="evenodd" d="M54.3044 96.8009L71.1549 116.588H60.3185L51.0088 105.674H34V96.8009H54.3044Z" fill="white"/>
<path fill-rule="evenodd" clip-rule="evenodd" d="M156.702 116.588H145.874L136.555 105.674H119.426L110.116 116.588H78.9006L71.1829 107.734H106.802L116.13 96.8009H139.86L156.702 116.588Z" fill="white"/>
<path fill-rule="evenodd" clip-rule="evenodd" d="M222 96.8009V105.674H204.982L195.663 116.588H164.447L156.73 107.734H192.367L201.677 96.8009H222Z" fill="white"/>
<path fill-rule="evenodd" clip-rule="evenodd" d="M77.7741 138.398H66.9377L57.6094 127.475H34V118.611H60.9236L77.7741 138.398Z" fill="white"/>
<path fill-rule="evenodd" clip-rule="evenodd" d="M163.321 138.398H152.484L143.175 127.475H112.825L103.497 138.398H85.5198L77.7928 129.534H100.201L109.511 118.611H146.47L163.321 138.398Z" fill="white"/>
<path fill-rule="evenodd" clip-rule="evenodd" d="M222 118.611V127.475H198.362L189.053 138.398H171.066L163.339 129.534H185.757L195.067 118.611H222Z" fill="white"/>
<path fill-rule="evenodd" clip-rule="evenodd" d="M84.4585 160.208H73.6034L64.2937 149.276H34V140.403H67.5893L84.4585 160.208Z" fill="white"/>
<path fill-rule="evenodd" clip-rule="evenodd" d="M170.005 160.208H159.15L149.84 149.276H106.141L96.8311 160.208H92.2041L84.4678 151.335H93.5354L102.845 140.403H153.136L170.005 160.208Z" fill="white"/>
<path fill-rule="evenodd" clip-rule="evenodd" d="M222 140.403V149.276H191.706L182.378 160.208H177.751L170.014 151.335H179.082L188.41 140.403H222Z" fill="white"/>
<path fill-rule="evenodd" clip-rule="evenodd" d="M74.2551 162.213L90.6308 181.439L90.156 182H80.2784L70.9501 171.067H34V162.213H74.2551Z" fill="white"/>
<path fill-rule="evenodd" clip-rule="evenodd" d="M159.792 162.213L176.187 181.448L175.712 182H165.825L156.515 171.067H99.4748L94.4569 176.961L88.9642 170.663L96.1792 162.213H159.792Z" fill="white"/>
<path fill-rule="evenodd" clip-rule="evenodd" d="M222 162.213V171.067H185.021L179.994 176.961L174.511 170.672L181.726 162.213H222Z" fill="white"/>
</svg>