<?xml version="1.0" encoding="UTF-8" standalone="no"?>
<!DOCTYPE svg PUBLIC "-//W3C//DTD SVG 1.1//EN"
 "http://www.w3.org/Graphics/SVG/1.1/DTD/svg11.dtd">
<!-- Generated by graphviz version 8.1.0 (20230707.0739)
 -->
<!-- Title: PoolManager inheritance graph Pages: 1 -->
<svg width="582pt" height="332pt"
 viewBox="0.00 0.00 581.88 332.00" xmlns="http://www.w3.org/2000/svg" xmlns:xlink="http://www.w3.org/1999/xlink">
<g id="graph0" class="graph" transform="scale(1 1) rotate(0) translate(4 328)">
<title>PoolManager inheritance graph</title>
<!-- contracts/PoolManager.sol_PoolManager -->
<g id="node1" class="node">
<title>contracts/PoolManager.sol_PoolManager</title>
<polygon fill="lightgrey" stroke="black" points="280.75,-36 191.25,-36 191.25,0 280.75,0 280.75,-36"/>
<text text-anchor="middle" x="236" y="-12.95" font-family="Times,serif" font-size="14.00">PoolManager</text>
</g>
<!-- contracts/interfaces/IPoolManager.sol_IPoolManager -->
<g id="node2" class="node">
<title>contracts/interfaces/IPoolManager.sol_IPoolManager</title>
<polygon fill="none" stroke="black" points="94,-108 0,-108 0,-72 94,-72 94,-108"/>
<text text-anchor="middle" x="47" y="-84.95" font-family="Times,serif" font-size="14.00">IPoolManager</text>
</g>
<!-- contracts/PoolManager.sol_PoolManager&#45;&gt;contracts/interfaces/IPoolManager.sol_IPoolManager -->
<g id="edge8" class="edge">
<title>contracts/PoolManager.sol_PoolManager&#45;&gt;contracts/interfaces/IPoolManager.sol_IPoolManager</title>
<path fill="none" stroke="black" d="M191.21,-35.59C165.15,-45.24 132.05,-57.5 104.13,-67.84"/>
<polygon fill="black" stroke="black" points="103.27,-64.8 95.11,-71.55 105.7,-71.36 103.27,-64.8"/>
</g>
<!-- contracts/Fees.sol_Fees -->
<g id="node3" class="node">
<title>contracts/Fees.sol_Fees</title>
<polygon fill="none" stroke="black" points="166,-108 112,-108 112,-72 166,-72 166,-108"/>
<text text-anchor="middle" x="139" y="-84.95" font-family="Times,serif" font-size="14.00">Fees</text>
</g>
<!-- contracts/PoolManager.sol_PoolManager&#45;&gt;contracts/Fees.sol_Fees -->
<g id="edge12" class="edge">
<title>contracts/PoolManager.sol_PoolManager&#45;&gt;contracts/Fees.sol_Fees</title>
<path fill="none" stroke="black" d="M212.02,-36.3C199.9,-45.05 185,-55.81 171.83,-65.31"/>
<polygon fill="black" stroke="black" points="170.1,-62.96 164.04,-71.65 174.2,-68.64 170.1,-62.96"/>
</g>
<!-- contracts/NoDelegateCall.sol_NoDelegateCall -->
<g id="node4" class="node">
<title>contracts/NoDelegateCall.sol_NoDelegateCall</title>
<polygon fill="none" stroke="black" points="287.5,-108 184.5,-108 184.5,-72 287.5,-72 287.5,-108"/>
<text text-anchor="middle" x="236" y="-84.95" font-family="Times,serif" font-size="14.00">NoDelegateCall</text>
</g>
<!-- contracts/PoolManager.sol_PoolManager&#45;&gt;contracts/NoDelegateCall.sol_NoDelegateCall -->
<g id="edge15" class="edge">
<title>contracts/PoolManager.sol_PoolManager&#45;&gt;contracts/NoDelegateCall.sol_NoDelegateCall</title>
<path fill="none" stroke="black" d="M236,-36.3C236,-43.76 236,-52.68 236,-61.03"/>
<polygon fill="black" stroke="black" points="232.5,-60.9 236,-70.9 239.5,-60.9 232.5,-60.9"/>
</g>
<!-- lib/openzeppelin&#45;contracts/contracts/token/ERC1155/ERC1155.sol_ERC1155 -->
<g id="node5" class="node">
<title>lib/openzeppelin&#45;contracts/contracts/token/ERC1155/ERC1155.sol_ERC1155</title>
<polygon fill="none" stroke="black" points="374.62,-108 305.38,-108 305.38,-72 374.62,-72 374.62,-108"/>
<text text-anchor="middle" x="340" y="-84.95" font-family="Times,serif" font-size="14.00">ERC1155</text>
</g>
<!-- contracts/PoolManager.sol_PoolManager&#45;&gt;lib/openzeppelin&#45;contracts/contracts/token/ERC1155/ERC1155.sol_ERC1155 -->
<g id="edge14" class="edge">
<title>contracts/PoolManager.sol_PoolManager&#45;&gt;lib/openzeppelin&#45;contracts/contracts/token/ERC1155/ERC1155.sol_ERC1155</title>
<path fill="none" stroke="black" d="M261.98,-36.48C275.1,-45.32 291.21,-56.16 305.38,-65.7"/>
<polygon fill="black" stroke="black" points="303.11,-69.06 313.36,-71.74 307.01,-63.25 303.11,-69.06"/>
</g>
<!-- lib/openzeppelin&#45;contracts/contracts/token/ERC1155/IERC1155Receiver.sol_IERC1155Receiver -->
<g id="node6" class="node">
<title>lib/openzeppelin&#45;contracts/contracts/token/ERC1155/IERC1155Receiver.sol_IERC1155Receiver</title>
<polygon fill="none" stroke="black" points="573.88,-252 452.12,-252 452.12,-216 573.88,-216 573.88,-252"/>
<text text-anchor="middle" x="513" y="-228.95" font-family="Times,serif" font-size="14.00">IERC1155Receiver</text>
</g>
<!-- contracts/PoolManager.sol_PoolManager&#45;&gt;lib/openzeppelin&#45;contracts/contracts/token/ERC1155/IERC1155Receiver.sol_IERC1155Receiver -->
<g id="edge2" class="edge">
<title>contracts/PoolManager.sol_PoolManager&#45;&gt;lib/openzeppelin&#45;contracts/contracts/token/ERC1155/IERC1155Receiver.sol_IERC1155Receiver</title>
<path fill="none" stroke="black" d="M281.08,-30.83C311.31,-39.79 351.4,-53.68 384,-72 428.35,-96.93 441.95,-103.7 473,-144 487.26,-162.51 497.77,-186.91 504.42,-205.48"/>
<polygon fill="black" stroke="black" points="501.35,-206.32 507.9,-214.65 507.98,-204.06 501.35,-206.32"/>
</g>
<!-- contracts/interfaces/IFees.sol_IFees -->
<g id="node7" class="node">
<title>contracts/interfaces/IFees.sol_IFees</title>
<polygon fill="none" stroke="black" points="93,-180 39,-180 39,-144 93,-144 93,-180"/>
<text text-anchor="middle" x="66" y="-156.95" font-family="Times,serif" font-size="14.00">IFees</text>
</g>
<!-- contracts/interfaces/IPoolManager.sol_IPoolManager&#45;&gt;contracts/interfaces/IFees.sol_IFees -->
<g id="edge7" class="edge">
<title>contracts/interfaces/IPoolManager.sol_IPoolManager&#45;&gt;contracts/interfaces/IFees.sol_IFees</title>
<path fill="none" stroke="black" d="M51.7,-108.3C53.74,-115.85 56.2,-124.88 58.49,-133.32"/>
<polygon fill="black" stroke="black" points="55.36,-134.16 61.36,-142.9 62.12,-132.33 55.36,-134.16"/>
</g>
<!-- lib/openzeppelin&#45;contracts/contracts/token/ERC1155/IERC1155.sol_IERC1155 -->
<g id="node8" class="node">
<title>lib/openzeppelin&#45;contracts/contracts/token/ERC1155/IERC1155.sol_IERC1155</title>
<polygon fill="none" stroke="black" points="292.88,-252 219.12,-252 219.12,-216 292.88,-216 292.88,-252"/>
<text text-anchor="middle" x="256" y="-228.95" font-family="Times,serif" font-size="14.00">IERC1155</text>
</g>
<!-- contracts/interfaces/IPoolManager.sol_IPoolManager&#45;&gt;lib/openzeppelin&#45;contracts/contracts/token/ERC1155/IERC1155.sol_IERC1155 -->
<g id="edge13" class="edge">
<title>contracts/interfaces/IPoolManager.sol_IPoolManager&#45;&gt;lib/openzeppelin&#45;contracts/contracts/token/ERC1155/IERC1155.sol_IERC1155</title>
<path fill="none" stroke="black" d="M36.35,-108.33C25.89,-127.81 13.68,-159.41 30,-180 51.8,-207.5 148.54,-222.11 208.16,-228.65"/>
<polygon fill="black" stroke="black" points="207.52,-232.2 217.83,-229.77 208.26,-225.24 207.52,-232.2"/>
</g>
<!-- contracts/Fees.sol_Fees&#45;&gt;contracts/interfaces/IFees.sol_IFees -->
<g id="edge1" class="edge">
<title>contracts/Fees.sol_Fees&#45;&gt;contracts/interfaces/IFees.sol_IFees</title>
<path fill="none" stroke="black" d="M120.96,-108.3C112.18,-116.72 101.48,-126.98 91.85,-136.21"/>
<polygon fill="black" stroke="black" points="89.89,-133.21 85.09,-142.65 94.73,-138.26 89.89,-133.21"/>
</g>
<!-- contracts/Owned.sol_Owned -->
<g id="node9" class="node">
<title>contracts/Owned.sol_Owned</title>
<polygon fill="none" stroke="black" points="166.5,-180 111.5,-180 111.5,-144 166.5,-144 166.5,-180"/>
<text text-anchor="middle" x="139" y="-156.95" font-family="Times,serif" font-size="14.00">Owned</text>
</g>
<!-- contracts/Fees.sol_Fees&#45;&gt;contracts/Owned.sol_Owned -->
<g id="edge9" class="edge">
<title>contracts/Fees.sol_Fees&#45;&gt;contracts/Owned.sol_Owned</title>
<path fill="none" stroke="black" d="M139,-108.3C139,-115.76 139,-124.68 139,-133.03"/>
<polygon fill="black" stroke="black" points="135.5,-132.9 139,-142.9 142.5,-132.9 135.5,-132.9"/>
</g>
<!-- lib/openzeppelin&#45;contracts/contracts/token/ERC1155/ERC1155.sol_ERC1155&#45;&gt;lib/openzeppelin&#45;contracts/contracts/token/ERC1155/IERC1155.sol_IERC1155 -->
<g id="edge10" class="edge">
<title>lib/openzeppelin&#45;contracts/contracts/token/ERC1155/ERC1155.sol_ERC1155&#45;&gt;lib/openzeppelin&#45;contracts/contracts/token/ERC1155/IERC1155.sol_IERC1155</title>
<path fill="none" stroke="black" d="M304.91,-104.65C268.58,-118.96 216.72,-139.91 214,-144 200.56,-164.24 215.01,-189.46 230.52,-207.88"/>
<polygon fill="black" stroke="black" points="227.34,-209.7 236.62,-214.82 232.56,-205.03 227.34,-209.7"/>
</g>
<!-- lib/openzeppelin&#45;contracts/contracts/utils/Context.sol_Context -->
<g id="node10" class="node">
<title>lib/openzeppelin&#45;contracts/contracts/utils/Context.sol_Context</title>
<polygon fill="none" stroke="black" points="281.38,-180 222.62,-180 222.62,-144 281.38,-144 281.38,-180"/>
<text text-anchor="middle" x="252" y="-156.95" font-family="Times,serif" font-size="14.00">Context</text>
</g>
<!-- lib/openzeppelin&#45;contracts/contracts/token/ERC1155/ERC1155.sol_ERC1155&#45;&gt;lib/openzeppelin&#45;contracts/contracts/utils/Context.sol_Context -->
<g id="edge11" class="edge">
<title>lib/openzeppelin&#45;contracts/contracts/token/ERC1155/ERC1155.sol_ERC1155&#45;&gt;lib/openzeppelin&#45;contracts/contracts/utils/Context.sol_Context</title>
<path fill="none" stroke="black" d="M318.25,-108.3C307.35,-116.97 293.99,-127.6 282.12,-137.04"/>
<polygon fill="black" stroke="black" points="280.45,-134.69 274.81,-143.65 284.81,-140.17 280.45,-134.69"/>
</g>
<!-- lib/openzeppelin&#45;contracts/contracts/utils/introspection/ERC165.sol_ERC165 -->
<g id="node11" class="node">
<title>lib/openzeppelin&#45;contracts/contracts/utils/introspection/ERC165.sol_ERC165</title>
<polygon fill="none" stroke="black" points="434.25,-252 371.75,-252 371.75,-216 434.25,-216 434.25,-252"/>
<text text-anchor="middle" x="403" y="-228.95" font-family="Times,serif" font-size="14.00">ERC165</text>
</g>
<!-- lib/openzeppelin&#45;contracts/contracts/token/ERC1155/ERC1155.sol_ERC1155&#45;&gt;lib/openzeppelin&#45;contracts/contracts/utils/introspection/ERC165.sol_ERC165 -->
<g id="edge5" class="edge">
<title>lib/openzeppelin&#45;contracts/contracts/token/ERC1155/ERC1155.sol_ERC1155&#45;&gt;lib/openzeppelin&#45;contracts/contracts/utils/introspection/ERC165.sol_ERC165</title>
<path fill="none" stroke="black" d="M375.06,-96.62C402.28,-103.02 438.29,-116.43 456,-144 464.65,-157.46 462.12,-165.22 456,-180 451.58,-190.66 443.87,-200.29 435.67,-208.33"/>
<polygon fill="black" stroke="black" points="433.8,-205.22 428.75,-214.53 438.51,-210.39 433.8,-205.22"/>
</g>
<!-- lib/openzeppelin&#45;contracts/contracts/token/ERC1155/extensions/IERC1155MetadataURI.sol_IERC1155MetadataURI -->
<g id="node12" class="node">
<title>lib/openzeppelin&#45;contracts/contracts/token/ERC1155/extensions/IERC1155MetadataURI.sol_IERC1155MetadataURI</title>
<polygon fill="none" stroke="black" points="447,-180 299,-180 299,-144 447,-144 447,-180"/>
<text text-anchor="middle" x="373" y="-156.95" font-family="Times,serif" font-size="14.00">IERC1155MetadataURI</text>
</g>
<!-- lib/openzeppelin&#45;contracts/contracts/token/ERC1155/ERC1155.sol_ERC1155&#45;&gt;lib/openzeppelin&#45;contracts/contracts/token/ERC1155/extensions/IERC1155MetadataURI.sol_IERC1155MetadataURI -->
<g id="edge4" class="edge">
<title>lib/openzeppelin&#45;contracts/contracts/token/ERC1155/ERC1155.sol_ERC1155&#45;&gt;lib/openzeppelin&#45;contracts/contracts/token/ERC1155/extensions/IERC1155MetadataURI.sol_IERC1155MetadataURI</title>
<path fill="none" stroke="black" d="M348.16,-108.3C351.83,-116.1 356.26,-125.49 360.35,-134.17"/>
<polygon fill="black" stroke="black" points="357.51,-135.34 364.94,-142.9 363.84,-132.36 357.51,-135.34"/>
</g>
<!-- lib/openzeppelin&#45;contracts/contracts/utils/introspection/IERC165.sol_IERC165 -->
<g id="node13" class="node">
<title>lib/openzeppelin&#45;contracts/contracts/utils/introspection/IERC165.sol_IERC165</title>
<polygon fill="none" stroke="black" points="436.5,-324 369.5,-324 369.5,-288 436.5,-288 436.5,-324"/>
<text text-anchor="middle" x="403" y="-300.95" font-family="Times,serif" font-size="14.00">IERC165</text>
</g>
<!-- lib/openzeppelin&#45;contracts/contracts/token/ERC1155/IERC1155Receiver.sol_IERC1155Receiver&#45;&gt;lib/openzeppelin&#45;contracts/contracts/utils/introspection/IERC165.sol_IERC165 -->
<g id="edge16" class="edge">
<title>lib/openzeppelin&#45;contracts/contracts/token/ERC1155/IERC1155Receiver.sol_IERC1155Receiver&#45;&gt;lib/openzeppelin&#45;contracts/contracts/utils/introspection/IERC165.sol_IERC165</title>
<path fill="none" stroke="black" d="M485.53,-252.48C471.51,-261.4 454.28,-272.37 439.19,-281.97"/>
<polygon fill="black" stroke="black" points="437.68,-279.42 431.12,-287.74 441.44,-285.32 437.68,-279.42"/>
</g>
<!-- lib/openzeppelin&#45;contracts/contracts/token/ERC1155/IERC1155.sol_IERC1155&#45;&gt;lib/openzeppelin&#45;contracts/contracts/utils/introspection/IERC165.sol_IERC165 -->
<g id="edge3" class="edge">
<title>lib/openzeppelin&#45;contracts/contracts/token/ERC1155/IERC1155.sol_IERC1155&#45;&gt;lib/openzeppelin&#45;contracts/contracts/utils/introspection/IERC165.sol_IERC165</title>
<path fill="none" stroke="black" d="M292.72,-252.48C312.98,-262.13 338.26,-274.17 359.51,-284.29"/>
<polygon fill="black" stroke="black" points="357.73,-287.8 368.27,-288.94 360.74,-281.48 357.73,-287.8"/>
</g>
<!-- lib/openzeppelin&#45;contracts/contracts/utils/introspection/ERC165.sol_ERC165&#45;&gt;lib/openzeppelin&#45;contracts/contracts/utils/introspection/IERC165.sol_IERC165 -->
<g id="edge6" class="edge">
<title>lib/openzeppelin&#45;contracts/contracts/utils/introspection/ERC165.sol_ERC165&#45;&gt;lib/openzeppelin&#45;contracts/contracts/utils/introspection/IERC165.sol_IERC165</title>
<path fill="none" stroke="black" d="M403,-252.3C403,-259.76 403,-268.68 403,-277.03"/>
<polygon fill="black" stroke="black" points="399.5,-276.9 403,-286.9 406.5,-276.9 399.5,-276.9"/>
</g>
<!-- lib/openzeppelin&#45;contracts/contracts/token/ERC1155/extensions/IERC1155MetadataURI.sol_IERC1155MetadataURI&#45;&gt;lib/openzeppelin&#45;contracts/contracts/token/ERC1155/IERC1155.sol_IERC1155 -->
<g id="edge17" class="edge">
<title>lib/openzeppelin&#45;contracts/contracts/token/ERC1155/extensions/IERC1155MetadataURI.sol_IERC1155MetadataURI&#45;&gt;lib/openzeppelin&#45;contracts/contracts/token/ERC1155/IERC1155.sol_IERC1155</title>
<path fill="none" stroke="black" d="M343.78,-180.48C328.73,-189.49 310.19,-200.58 294.04,-210.24"/>
<polygon fill="black" stroke="black" points="292.63,-207.6 285.85,-215.74 296.23,-213.61 292.63,-207.6"/>
</g>
</g>
</svg>
