<?xml version="1.0" encoding="UTF-8"?>
<svg width="407px" height="60px" viewBox="0 0 407 60" version="1.1" xmlns="http://www.w3.org/2000/svg" xmlns:xlink="http://www.w3.org/1999/xlink">
    <title>img_ackee_logo_header</title>
    <g id="Design" stroke="none" stroke-width="1" fill="none" fill-rule="evenodd">
        <g id="header" transform="translate(0.000000, -42.000000)">
            <g id="img_ackee_logo_header" transform="translate(-0.000000, 42.000000)">
                <polygon id="Fill-1" fill="#0000FF" points="0 60 192 60 192 0 0 0"></polygon>
                <path d="M102.95622,47.4224133 L93.9092415,36.5074838 L90.3431447,36.5074838 L90.3431447,47.4224133 L84.3027902,47.4224133 L84.3027902,7.7391825 L90.3431447,7.7391825 L90.3431447,29.982692 L93.9092415,29.982692 L102.94863,19.0677625 L110.804019,19.0677625 L99.0626798,33.2450879 L110.812692,47.4224133 L102.95622,47.4224133 Z M31.3415352,24.0032657 C26.2661629,24.0032657 22.1362563,28.1495673 22.1362563,33.2450879 C22.1362563,38.3406085 26.2661629,42.4869101 31.3415352,42.4869101 C36.4169075,42.4869101 40.5457299,38.3406085 40.5457299,33.2450879 C40.5457299,28.1495673 36.4169075,24.0032657 31.3415352,24.0032657 L31.3415352,24.0032657 Z M31.3415352,48.5512437 C22.9353482,48.5512437 16.0959019,41.6846459 16.0959019,33.2450879 C16.0959019,24.8055299 22.9353482,17.9389321 31.3415352,17.9389321 C34.5585037,17.9389321 37.639941,18.9425788 40.2518983,20.837751 L40.5457299,21.0511076 L40.5457299,19.0677625 L46.5860843,19.0677625 L46.5860843,47.4224133 L40.5457299,47.4224133 L40.5457299,45.4390682 L40.2518983,45.6513362 C37.6410253,47.5486856 34.5585037,48.5512437 31.3415352,48.5512437 L31.3415352,48.5512437 Z M66.9916614,48.5512437 C58.5865587,48.5512437 51.7471123,41.6846459 51.7471123,33.2450879 C51.7471123,24.8055299 58.5865587,17.9389321 66.9916614,17.9389321 C72.120162,17.9389321 76.8518271,20.493768 79.6903925,24.7804931 L74.2105952,27.5149404 C72.4551951,25.2812279 69.8323953,24.0032657 66.9916614,24.0032657 C61.9162892,24.0032657 57.7874668,28.1495673 57.7863825,33.2450879 C57.7874668,38.3406085 61.9162892,42.4869101 66.9916614,42.4869101 C69.8323953,42.4869101 72.4551951,41.2100365 74.2105952,38.9752354 L79.6903925,41.7096827 C76.8518271,45.9964078 72.120162,48.5512437 66.9916614,48.5512437 L66.9916614,48.5512437 Z M126.930063,24.0032657 C123.159042,24.0032657 119.932316,26.344745 118.708198,29.9674522 L118.625795,30.2123769 L135.23433,30.2123769 L135.150843,29.9674522 C133.927809,26.344745 130.701083,24.0032657 126.930063,24.0032657 L126.930063,24.0032657 Z M127.387616,48.5512437 C118.981429,48.5512437 112.141982,41.6846459 112.141982,33.2450879 C112.141982,24.6629293 118.637722,17.9389321 126.930063,17.9389321 C135.222403,17.9389321 141.717058,24.6629293 141.717058,33.2450879 L141.717058,36.2767104 L118.687597,36.2767104 L118.783011,36.5281663 C120.136155,40.0931802 123.595995,42.4869101 127.387616,42.4869101 C129.901991,42.4869101 132.234211,41.5006803 133.972264,39.7045665 L139.392427,42.6806727 C136.480133,46.4144125 132.118197,48.5512437 127.387616,48.5512437 L127.387616,48.5512437 Z M161.117536,24.0032657 C157.346516,24.0032657 154.119789,26.344745 152.895671,29.9674522 L152.813269,30.2123769 L169.420719,30.2123769 L169.338316,29.9674522 C168.115283,26.344745 164.887472,24.0032657 161.117536,24.0032657 L161.117536,24.0032657 Z M161.575089,48.5512437 C153.168902,48.5512437 146.329456,41.6846459 146.329456,33.2450879 C146.329456,24.6629293 152.825195,17.9389321 161.117536,17.9389321 C169.408793,17.9389321 175.904532,24.6629293 175.904532,33.2450879 L175.904532,36.2767104 L152.875071,36.2767104 L152.970485,36.5281663 C154.323628,40.0931802 157.7813,42.4869101 161.575089,42.4869101 C164.08838,42.4869101 166.420601,41.5006803 168.159737,39.7045665 L173.579901,42.6806727 C170.667606,46.4144125 166.304586,48.5512437 161.575089,48.5512437 L161.575089,48.5512437 Z" id="Fill-2" fill="#FFFFFF"></path>
                <path d="M337.27205,23.9754913 C335.284124,23.9754913 333.408244,24.5133584 331.838737,25.5122544 L331.838737,17 L327.510995,17 L327.510995,33.7145065 L327.510995,33.7215721 L327.510995,35.9048355 L327.510995,44.2333849 L331.838737,44.2333849 L331.838737,33.7145065 C331.842239,30.5508942 334.075263,28.3420181 337.27205,28.3420181 C340.471463,28.3420181 342.705363,30.554427 342.705363,33.7215721 L342.705363,44.2333849 L347.033105,44.2333849 L347.033105,33.7215721 C347.033105,30.939501 346.003691,28.4206227 344.133062,26.6312652 C342.343842,24.9187459 339.906861,23.9754913 337.27205,23.9754913 L337.27205,23.9754913 Z M315.27882,28.1291676 C317.217725,28.1291676 319.007821,29.0052992 320.206178,30.5394127 L323.945684,28.6626187 C322.008529,25.7215721 318.779354,23.9701921 315.27882,23.9701921 C309.540884,23.9701921 304.873505,28.6793994 304.873505,34.4687569 C304.873505,40.2589976 309.540884,44.9682049 315.27882,44.9682049 C318.779354,44.9682049 322.008529,43.2159417 323.945684,40.2748951 L320.206178,38.3998675 C319.007821,39.9322146 317.217725,40.8083462 315.27882,40.8083462 C311.814175,40.8083462 308.996415,37.9653345 308.99554,34.4687569 C308.996415,30.9739457 311.814175,28.1291676 315.27882,28.1291676 L315.27882,28.1291676 Z M304.734324,24.7827335 L299.37279,24.7827335 L293.202431,32.2704791 L290.768076,32.2704791 L290.768076,17 L286.646041,17 L286.646041,44.2333849 L290.768076,44.2333849 L290.768076,36.7456392 L293.202431,36.7456392 L299.377167,44.2333849 L304.739576,44.2333849 L296.720472,34.5085008 L304.734324,24.7827335 Z M404.099957,26.6021197 C402.310737,24.8887172 399.873756,23.9463458 397.238945,23.9463458 C395.250144,23.9463458 393.375139,24.4833297 391.805632,25.4831089 L391.805632,24.7111945 L387.477014,24.7111945 L387.477014,33.685361 L387.477014,33.6915434 L387.477014,35.87569 L387.477014,44.202473 L391.805632,44.202473 L391.805632,33.685361 C391.809134,30.5217487 394.042158,28.3119894 397.238945,28.3119894 C400.437483,28.3119894 402.671382,30.5243983 402.671382,33.6915434 L402.671382,44.202473 L407,44.202473 L407,33.6915434 C407,30.9094723 405.96971,28.3914771 404.099957,26.6021197 L404.099957,26.6021197 Z M360.921447,40.8277766 C357.457677,40.8277766 354.639042,37.9838817 354.639042,34.4881872 C354.639042,30.9924928 357.457677,28.1494811 360.921447,28.1494811 C364.386092,28.1494811 367.204727,30.9924928 367.204727,34.4881872 C367.204727,37.9838817 364.386092,40.8277766 360.921447,40.8277766 L360.921447,40.8277766 Z M367.204727,26.1251932 L367.004271,25.9785825 C365.221178,24.677633 363.117706,23.9896224 360.921447,23.9896224 C355.184387,23.9896224 350.516132,28.699713 350.516132,34.4881872 C350.516132,40.2775447 355.184387,44.9876352 360.921447,44.9876352 C363.117706,44.9876352 365.221178,44.2996246 367.004271,42.9986752 L367.204727,42.8520645 L367.204727,44.2130713 L371.326762,44.2130713 L371.326762,24.7641864 L367.204727,24.7641864 L367.204727,26.1251932 Z M377.213507,44.202473 L381.372306,44.202473 L381.372306,24.7341577 L377.213507,24.7341577 L377.213507,44.202473 Z M379.293344,17.2022522 C377.968061,17.2022522 376.894879,18.2868183 376.894879,19.6230956 C376.894879,20.9593729 377.968061,22.0430559 379.293344,22.0430559 C380.617752,22.0430559 381.69181,20.9593729 381.69181,19.6230956 C381.69181,18.2868183 380.617752,17.2022522 379.293344,17.2022522 L379.293344,17.2022522 Z M232.599155,44.2333849 L236.757954,44.2333849 L236.757954,17 L232.599155,17 L232.599155,44.2333849 Z M274.285189,28.1291676 C276.22497,28.1291676 278.015066,29.0052992 279.212548,30.5394127 L282.952929,28.6626187 C281.014899,25.7215721 277.785723,23.9701921 274.285189,23.9701921 C268.548129,23.9701921 263.879874,28.6793994 263.879874,34.4687569 C263.879874,40.2589976 268.548129,44.9682049 274.285189,44.9682049 C277.785723,44.9682049 281.014899,43.2159417 282.952929,40.2748951 L279.212548,38.3998675 C278.01419,39.9322146 276.224095,40.8083462 274.285189,40.8083462 C270.821419,40.8083462 268.002784,37.9653345 268.002784,34.4687569 C268.002784,30.9739457 270.821419,28.1291676 274.285189,28.1291676 L274.285189,28.1291676 Z M218.41757,40.6334732 C215.059718,40.6334732 212.327743,37.8770148 212.327743,34.4881872 C212.327743,31.1002429 215.059718,28.3437845 218.41757,28.3437845 C221.776297,28.3437845 224.508272,31.1002429 224.508272,34.4881872 C224.508272,37.8770148 221.776297,40.6334732 218.41757,40.6334732 L218.41757,40.6334732 Z M218.41757,23.9772577 C216.145155,23.9772577 214.041683,24.7173769 212.327743,25.9679841 L212.327743,17 L208,17 L208,44.2342681 L212.327743,44.2342681 L212.327743,43.0092736 C214.041683,44.2598808 216.145155,45 218.41757,45 C224.162508,45 228.836014,40.2846103 228.836014,34.4881872 C228.836014,28.6926474 224.162508,23.9772577 218.41757,23.9772577 L218.41757,23.9772577 Z M250.698817,40.6334732 C247.340965,40.6334732 244.60899,37.8770148 244.60899,34.4881872 C244.60899,31.1002429 247.340965,28.3437845 250.698817,28.3437845 C254.057545,28.3437845 256.78952,31.1002429 256.78952,34.4881872 C256.78952,37.8770148 254.057545,40.6334732 250.698817,40.6334732 L250.698817,40.6334732 Z M250.698817,23.9772577 C244.954754,23.9772577 240.281248,28.6926474 240.281248,34.4881872 C240.281248,40.2846103 244.954754,45 250.698817,45 C256.443755,45 261.117262,40.2846103 261.117262,34.4881872 C261.117262,28.6926474 256.443755,23.9772577 250.698817,23.9772577 L250.698817,23.9772577 Z" id="Fill-4" fill="#FFFFFF"></path>
            </g>
        </g>
    </g>
</svg>